<svg width="18" height="18" viewBox="0 0 18 18" fill="none" xmlns="http://www.w3.org/2000/svg">
<path d="M4.152 16.4147C4.27332 16.4778 4.40954 16.5067 4.54604 16.4983C4.68253 16.4898 4.81414 16.4443 4.92675 16.3667L14.6768 9.61674C14.7764 9.54771 14.8578 9.45557 14.914 9.3482C14.9703 9.24084 14.9996 9.12144 14.9996 9.00024C14.9996 8.87903 14.9703 8.75964 14.914 8.65227C14.8578 8.5449 14.7764 8.45276 14.6768 8.38374L4.92675 1.63374C4.81423 1.55588 4.68256 1.51029 4.54599 1.5019C4.40941 1.49351 4.27315 1.52264 4.15195 1.58614C4.03074 1.64964 3.92922 1.74508 3.85837 1.86214C3.78752 1.9792 3.75005 2.11341 3.75 2.25024V15.7502C3.74998 15.8871 3.78743 16.0214 3.85829 16.1386C3.92915 16.2557 4.03073 16.3512 4.152 16.4147Z" fill="white"/>
</svg>
