<svg width="32" height="32" fill="none" xmlns="http://www.w3.org/2000/svg"><path d="M20.32 16c0-2.4-1.92-4.32-4.32-4.32-2.4 0-4.32 1.92-4.32 4.32 0 2.4 1.92 4.32 4.32 4.32 2.4 0 4.32-1.92 4.32-4.32zm2.24 0c0 3.68-2.88 6.56-6.56 6.56-3.68 0-6.56-2.88-6.56-6.56 0-3.68 2.88-6.56 6.56-6.56 3.68 0 6.56 2.88 6.56 6.56zm1.76-6.88c0 .96-.64 1.6-1.6 1.6-.96 0-1.6-.64-1.6-1.6 0-.96.64-1.6 1.6-1.6.96 0 1.6.8 1.6 1.6zM16 5.44c-1.92 0-5.92-.16-7.52.48-1.12.48-2.08 1.44-2.4 2.56-.64 1.6-.48 5.6-.48 7.52s-.16 5.92.48 7.52c.32 1.12 1.28 2.08 2.4 2.4 1.6.64 5.76.48 7.52.48 1.76 0 5.92.16 7.52-.48a4.413 4.413 0 002.4-2.4c.64-1.76.48-5.76.48-7.52 0-1.76.16-5.92-.48-7.52-.32-1.12-1.28-2.08-2.4-2.4-1.6-.8-5.6-.64-7.52-.64zM28.8 16v5.28c0 1.92-.64 3.84-2.08 5.44-1.44 1.44-3.36 2.08-5.44 2.08H10.72c-1.92 0-3.84-.64-5.44-2.08a8.204 8.204 0 01-2.08-5.44V10.72c0-2.08.8-4 2.08-5.44C6.88 4 8.8 3.2 10.72 3.2h10.56c1.92 0 3.84.64 5.44 2.08a8.204 8.204 0 012.08 5.44V16z" fill="#fff"/></svg>